<?xml version="1.0" encoding="utf-8"?>
<!-- Generator: Adobe Illustrator 24.0.2, SVG Export Plug-In . SVG Version: 6.00 Build 0)  -->
<svg version="1.1" id="Layer_1" xmlns="http://www.w3.org/2000/svg" xmlns:xlink="http://www.w3.org/1999/xlink" x="0px" y="0px"
	 viewBox="0 0 569 238" style="enable-background:new 0 0 569 238;" xml:space="preserve">
<style type="text/css">
	.st0{fill:#EE7B31;}
</style>
<g>
	
		<ellipse transform="matrix(0.9732 -0.2298 0.2298 0.9732 -37.4681 20.0149)" class="st0" cx="67.22" cy="170.91" rx="6.49" ry="6.49"/>
	<path class="st0" d="M119.12,0c-65.72,0-119,53.28-119,119s53.28,119,119,119s119-53.28,119-119S184.84,0,119.12,0z M121.86,61.19
		c10-10,24.12-13.41,36.93-10.25c2.46,0.62,3.33,3.68,1.54,5.46l-20.12,20.12l3.06,18.36l18.36,3.06l20.12-20.12
		c1.78-1.78,4.84-0.95,5.43,1.49c3.19,12.82-0.22,26.93-10.25,36.96c-3.51,3.51-7.57,6.11-11.84,7.98l-5.25-5.25
		c-5.41-5.41-12.6-8.38-20.25-8.38c-2.22,0-4.49,0.27-6.68,0.78l-22.2-22.2C110.53,79.06,114.15,68.89,121.86,61.19z M79.44,183.15
		c-6.76,6.76-17.71,6.76-24.47,0c-6.76-6.76-6.76-17.71,0-24.47l41.21-41.23l15.33,15.33c-1.32,5.7-0.7,11.57,1.35,16.95
		L79.44,183.15z M185.4,171.01l-14.25,14.25c-3.92,3.95-10.3,3.95-14.25,0l-31.66-31.66c-6.25-6.25-7.44-15.57-3.76-23.09
		l-28.82-28.82H75.87L49.91,67.08l17.3-17.3l34.61,25.96v16.79l28.82,28.82c7.52-3.7,16.84-2.49,23.09,3.76l31.66,31.66
		C189.32,160.69,189.32,167.07,185.4,171.01z"/>
</g>
<g>
	<path d="M283.07,82.39h17.05v8.23H272.7V38.88h10.38V82.39z"/>
	<path d="M314.28,88.65c-3.16-1.75-5.65-4.24-7.45-7.45c-1.8-3.21-2.71-6.92-2.71-11.12c0-4.2,0.93-7.9,2.78-11.12
		c1.85-3.21,4.38-5.69,7.6-7.45c3.21-1.75,6.79-2.63,10.75-2.63c3.95,0,7.53,0.88,10.75,2.63c3.21,1.75,5.74,4.24,7.6,7.45
		c1.85,3.21,2.78,6.92,2.78,11.12c0,4.2-0.95,7.91-2.85,11.12c-1.9,3.21-4.47,5.7-7.71,7.45c-3.24,1.75-6.86,2.63-10.86,2.63
		C321,91.28,317.44,90.4,314.28,88.65z M330.25,80.87c1.65-0.91,2.98-2.28,3.96-4.11c0.99-1.83,1.48-4.05,1.48-6.67
		c0-3.9-1.03-6.9-3.08-9c-2.05-2.1-4.56-3.15-7.52-3.15s-5.45,1.05-7.45,3.15c-2,2.1-3,5.1-3,9c0,3.9,0.98,6.91,2.93,9
		c1.95,2.1,4.41,3.15,7.37,3.15C326.83,82.24,328.59,81.78,330.25,80.87z"/>
	<path d="M369.9,50.78c2.35-1.26,5.03-1.89,8.04-1.89c3.51,0,6.68,0.86,9.52,2.59c2.84,1.73,5.09,4.19,6.75,7.37
		c1.65,3.19,2.48,6.88,2.48,11.08c0,4.2-0.83,7.92-2.48,11.15c-1.66,3.24-3.9,5.74-6.75,7.52c-2.84,1.78-6.02,2.67-9.52,2.67
		c-3.01,0-5.67-0.62-7.97-1.85c-2.3-1.23-4.16-2.79-5.6-4.67v25.42H354V49.56h10.38v5.93C365.71,53.61,367.55,52.04,369.9,50.78z
		 M384.57,63.53c-1.01-1.8-2.35-3.17-4-4.11c-1.66-0.94-3.45-1.41-5.37-1.41c-1.88,0-3.64,0.48-5.3,1.45
		c-1.66,0.96-2.99,2.36-4,4.19c-1.01,1.83-1.52,3.98-1.52,6.45c0,2.47,0.51,4.62,1.52,6.45c1.01,1.83,2.35,3.22,4,4.19
		c1.65,0.96,3.42,1.44,5.3,1.44c1.93,0,3.72-0.49,5.37-1.48c1.66-0.99,2.99-2.4,4-4.22c1.01-1.83,1.52-4,1.52-6.52
		C386.09,67.47,385.58,65.33,384.57,63.53z"/>
	<path d="M442.12,73.2h-30.02c0.25,2.96,1.28,5.29,3.11,6.97c1.83,1.68,4.08,2.52,6.74,2.52c3.85,0,6.6-1.65,8.23-4.97h11.19
		c-1.19,3.95-3.46,7.2-6.82,9.75c-3.36,2.55-7.49,3.82-12.38,3.82c-3.95,0-7.5-0.88-10.64-2.63c-3.14-1.75-5.58-4.24-7.34-7.45
		c-1.75-3.21-2.63-6.92-2.63-11.12c0-4.25,0.86-7.98,2.59-11.19c1.73-3.21,4.15-5.68,7.26-7.41c3.11-1.73,6.69-2.59,10.75-2.59
		c3.9,0,7.4,0.84,10.49,2.52c3.09,1.68,5.48,4.06,7.19,7.15c1.71,3.09,2.56,6.63,2.56,10.64C442.42,70.68,442.32,72.01,442.12,73.2z
		 M431.67,66.23c-0.05-2.67-1.01-4.8-2.89-6.41c-1.88-1.6-4.18-2.41-6.89-2.41c-2.57,0-4.73,0.78-6.48,2.33
		c-1.75,1.56-2.83,3.72-3.22,6.48H431.67z"/>
	<path d="M459.46,82.09h18.31v8.52h-30.09v-8.38l17.94-24.16h-17.86v-8.52h29.79v8.37L459.46,82.09z"/>
	<path d="M273.4,131.86c-1.21-1.16-1.82-2.61-1.82-4.34c0-1.73,0.6-3.17,1.82-4.34c1.21-1.16,2.73-1.74,4.56-1.74
		c1.83,0,3.35,0.58,4.56,1.74c1.21,1.16,1.82,2.61,1.82,4.34c0,1.73-0.61,3.18-1.82,4.34c-1.21,1.16-2.73,1.74-4.56,1.74
		C276.13,133.6,274.61,133.02,273.4,131.86z M283.07,138.49v41.06H272.7v-41.06H283.07z"/>
	<path d="M319.98,179.55l-11.41-20.16h-4.89v20.16H293.3v-51.73h19.42c4,0,7.41,0.7,10.23,2.11s4.93,3.31,6.34,5.71
		c1.41,2.4,2.11,5.08,2.11,8.04c0,3.41-0.99,6.48-2.96,9.23c-1.98,2.74-4.92,4.63-8.82,5.67l12.38,20.97H319.98z M303.68,151.61
		h8.67c2.82,0,4.92-0.68,6.3-2.04c1.38-1.36,2.08-3.25,2.08-5.67c0-2.37-0.69-4.21-2.08-5.52c-1.38-1.31-3.48-1.96-6.3-1.96h-8.67
		V151.61z"/>
	<path d="M378.68,162.13h-30.02c0.25,2.96,1.28,5.29,3.11,6.97c1.83,1.68,4.08,2.52,6.74,2.52c3.85,0,6.6-1.65,8.23-4.96h11.19
		c-1.19,3.95-3.46,7.2-6.82,9.75c-3.36,2.54-7.49,3.82-12.38,3.82c-3.95,0-7.5-0.88-10.64-2.63c-3.14-1.75-5.58-4.24-7.34-7.45
		c-1.75-3.21-2.63-6.92-2.63-11.12c0-4.25,0.86-7.98,2.59-11.19c1.73-3.21,4.15-5.68,7.26-7.41c3.11-1.73,6.69-2.59,10.75-2.59
		c3.9,0,7.4,0.84,10.49,2.52c3.09,1.68,5.48,4.06,7.19,7.15c1.71,3.09,2.56,6.63,2.56,10.64
		C378.98,159.61,378.88,160.95,378.68,162.13z M368.23,155.17c-0.05-2.67-1.01-4.8-2.89-6.41c-1.88-1.6-4.18-2.41-6.89-2.41
		c-2.57,0-4.73,0.78-6.48,2.33c-1.75,1.56-2.83,3.72-3.22,6.48H368.23z"/>
	<path d="M402.43,139.72c2.35-1.26,5.03-1.89,8.04-1.89c3.51,0,6.68,0.87,9.52,2.59c2.84,1.73,5.09,4.19,6.75,7.37
		c1.65,3.19,2.48,6.88,2.48,11.08c0,4.2-0.83,7.92-2.48,11.15c-1.66,3.24-3.9,5.74-6.75,7.52c-2.84,1.78-6.02,2.67-9.52,2.67
		c-3.01,0-5.67-0.62-7.97-1.85c-2.3-1.23-4.16-2.79-5.6-4.67v25.42h-10.38v-60.63h10.38v5.93
		C398.25,142.54,400.09,140.98,402.43,139.72z M417.11,152.46c-1.01-1.8-2.35-3.17-4-4.11c-1.66-0.94-3.45-1.41-5.37-1.41
		c-1.88,0-3.64,0.48-5.3,1.45c-1.66,0.96-2.99,2.36-4,4.19c-1.01,1.83-1.52,3.98-1.52,6.45s0.51,4.62,1.52,6.45
		c1.01,1.83,2.35,3.22,4,4.19c1.65,0.96,3.42,1.45,5.3,1.45c1.93,0,3.72-0.49,5.37-1.48c1.66-0.99,2.99-2.4,4-4.22
		c1.01-1.83,1.52-4,1.52-6.52C418.63,156.4,418.12,154.27,417.11,152.46z"/>
	<path d="M436.6,147.83c1.65-3.21,3.9-5.68,6.74-7.41c2.84-1.73,6.01-2.59,9.52-2.59c3.06,0,5.74,0.62,8.04,1.85
		c2.3,1.24,4.14,2.79,5.52,4.67v-5.86h10.45v41.06h-10.45v-6c-1.33,1.93-3.18,3.52-5.52,4.78c-2.35,1.26-5.05,1.89-8.12,1.89
		c-3.46,0-6.61-0.89-9.45-2.67c-2.84-1.78-5.09-4.29-6.74-7.52c-1.66-3.24-2.48-6.95-2.48-11.15
		C434.12,154.72,434.94,151.04,436.6,147.83z M464.95,152.54c-0.99-1.8-2.32-3.19-4-4.15c-1.68-0.96-3.48-1.45-5.41-1.45
		c-1.93,0-3.71,0.47-5.34,1.41c-1.63,0.94-2.95,2.31-3.96,4.11c-1.01,1.8-1.52,3.94-1.52,6.41s0.51,4.63,1.52,6.49
		c1.01,1.85,2.35,3.27,4,4.26c1.66,0.99,3.42,1.48,5.3,1.48c1.93,0,3.73-0.48,5.41-1.45c1.68-0.96,3.01-2.35,4-4.15
		c0.99-1.8,1.48-3.96,1.48-6.48C466.43,156.5,465.94,154.34,464.95,152.54z"/>
	<path d="M487.74,131.86c-1.21-1.16-1.82-2.61-1.82-4.34c0-1.73,0.6-3.17,1.82-4.34c1.21-1.16,2.73-1.74,4.56-1.74
		c1.83,0,3.35,0.58,4.56,1.74c1.21,1.16,1.82,2.61,1.82,4.34c0,1.73-0.61,3.18-1.82,4.34c-1.21,1.16-2.73,1.74-4.56,1.74
		C490.47,133.6,488.95,133.02,487.74,131.86z M497.41,138.49v41.06h-10.38v-41.06H497.41z"/>
	<path d="M523.24,139.75c2.15-1.23,4.61-1.85,7.37-1.85v10.89h-2.74c-3.26,0-5.72,0.77-7.37,2.3c-1.66,1.53-2.48,4.2-2.48,8v20.46
		h-10.38v-41.06h10.38v6.37C519.35,142.69,521.09,140.99,523.24,139.75z"/>
	<path d="M544.25,178.4c-2.67-1.21-4.78-2.85-6.34-4.93s-2.41-4.37-2.56-6.89h10.45c0.2,1.58,0.97,2.89,2.33,3.93
		c1.36,1.04,3.05,1.56,5.08,1.56c1.98,0,3.52-0.4,4.63-1.19c1.11-0.79,1.67-1.8,1.67-3.04c0-1.33-0.68-2.33-2.04-3
		c-1.36-0.67-3.52-1.4-6.49-2.19c-3.06-0.74-5.57-1.51-7.52-2.3c-1.95-0.79-3.63-2-5.04-3.63s-2.11-3.83-2.11-6.6
		c0-2.27,0.65-4.35,1.96-6.23c1.31-1.88,3.19-3.36,5.63-4.45c2.45-1.09,5.32-1.63,8.63-1.63c4.89,0,8.79,1.22,11.71,3.67
		c2.92,2.45,4.52,5.74,4.82,9.89h-9.93c-0.15-1.63-0.83-2.93-2.04-3.89c-1.21-0.96-2.83-1.45-4.85-1.45c-1.88,0-3.32,0.35-4.33,1.04
		c-1.01,0.69-1.52,1.66-1.52,2.89c0,1.38,0.69,2.43,2.08,3.15c1.38,0.72,3.53,1.45,6.45,2.19c2.96,0.74,5.41,1.51,7.34,2.3
		c1.93,0.79,3.59,2.01,5,3.67c1.41,1.66,2.14,3.84,2.19,6.56c0,2.37-0.66,4.5-1.96,6.37c-1.31,1.88-3.19,3.35-5.63,4.41
		c-2.45,1.06-5.3,1.59-8.56,1.59C549.93,180.22,546.92,179.61,544.25,178.4z"/>
</g>
</svg>
